<mxfile host="app.diagrams.net" modified="2023-05-09T06:29:26.683Z" agent="Mozilla/5.0 (Macintosh; Intel Mac OS X 10_15_7) AppleWebKit/537.36 (KHTML, like Gecko) Chrome/112.0.0.0 Safari/537.36" version="21.2.9" etag="HP26JOd-289uaE6SgdC6" type="github">
  <diagram name="第 1 页" id="KMVp9Puc1XiIh5f-s0Bj">
    <mxGraphModel>
      <root>
        <mxCell id="0" />
        <mxCell id="1" parent="0" />
      </root>
    </mxGraphModel>
  </diagram>
</mxfile>
